<?xml version="1.0" encoding="UTF-8"?>
<svg version="1.1" xmlns="http://www.w3.org/2000/svg" width="128" height="128">
<circle r="55" fill="#ffffff" cx="65" cy="65" stroke-width="4" stroke="#000000"/>
<path stroke="#000000" d="M0 0 C0.98484375 -0.00128906 1.9696875 -0.00257813 2.984375 -0.00390625 C4.02078125 -0.00003906 5.0571875 0.00382813 6.125 0.0078125 C7.67960937 0.00201172 7.67960937 0.00201172 9.265625 -0.00390625 C10.25046875 -0.00261719 11.2353125 -0.00132812 12.25 0 C13.16007812 0.00112793 14.07015625 0.00225586 15.0078125 0.00341797 C17.125 0.1328125 17.125 0.1328125 18.125 1.1328125 C18.16592937 3.46578683 18.16741723 5.79986475 18.125 8.1328125 C19.3625 8.0503125 20.6 7.9678125 21.875 7.8828125 C24.87703657 7.68267673 25.83377174 7.90198714 28.234375 9.8046875 C30.58393904 12.69795231 30.59399759 14.08992559 30.515625 17.7734375 C30.50273438 18.84335937 30.48984375 19.91328125 30.4765625 21.015625 C30.44304687 22.12679688 30.40953125 23.23796875 30.375 24.3828125 C30.35695312 25.50945313 30.33890625 26.63609375 30.3203125 27.796875 C30.27320222 30.57638146 30.20743361 33.3541659 30.125 36.1328125 C29.36574219 36.24238281 28.60648438 36.35195313 27.82421875 36.46484375 C26.83035156 36.62339844 25.83648437 36.78195313 24.8125 36.9453125 C23.82636719 37.09613281 22.84023437 37.24695312 21.82421875 37.40234375 C18.94869368 38.18052492 17.88696331 38.77782594 16.125 41.1328125 C14.88026468 44.86701847 14.89290215 48.40646488 14.80859375 52.30078125 C14.78781265 53.09559402 14.76703156 53.8904068 14.74562073 54.70930481 C14.68027913 57.24622013 14.62131192 59.78323823 14.5625 62.3203125 C14.51930014 64.04102622 14.47568537 65.76172958 14.43164062 67.48242188 C14.32461352 71.69911363 14.22330276 75.9159087 14.125 80.1328125 C9.54187916 80.24886348 4.95913551 80.32001612 0.375 80.3828125 C-0.92695312 80.41632813 -2.22890625 80.44984375 -3.5703125 80.484375 C-4.82070313 80.49726562 -6.07109375 80.51015625 -7.359375 80.5234375 C-8.51147461 80.54438477 -9.66357422 80.56533203 -10.85058594 80.58691406 C-14.62516244 80.02017913 -15.55043969 79.11300026 -17.875 76.1328125 C-18.38293457 73.24902344 -18.38293457 73.24902344 -18.39257812 69.8671875 C-18.40518677 68.59907227 -18.41779541 67.33095703 -18.43078613 66.02441406 C-18.4236263 64.64387455 -18.41542231 63.26334011 -18.40625 61.8828125 C-18.40894562 60.46321344 -18.41282863 59.04361619 -18.41784668 57.62402344 C-18.42373858 54.65151356 -18.41518954 51.67948509 -18.39648438 48.70703125 C-18.373694 44.90022463 -18.38681888 41.09454601 -18.41077423 37.28778076 C-18.42524114 34.35717294 -18.42062235 31.42683176 -18.41026306 28.49621582 C-18.40759819 27.09281276 -18.41085717 25.68938535 -18.42018127 24.28601074 C-18.43035941 22.32349115 -18.4120904 20.36088648 -18.39257812 18.3984375 C-18.38939575 17.28243164 -18.38621338 16.16642578 -18.38293457 15.01660156 C-17.76170247 11.48956788 -16.66881418 10.30359719 -13.875 8.1328125 C-11.09357957 7.62525403 -8.7292771 7.94252736 -5.875 8.1328125 C-5.895625 6.9984375 -5.91625 5.8640625 -5.9375 4.6953125 C-5.84463221 -0.59815161 -4.80810502 0.00595905 0 0 Z " fill="#00FF00" transform="translate(55,24)"/>
<path d="M0 0 C3 0.125 3 0.125 4 1.125 C4.04092937 3.45797433 4.04241723 5.79205225 4 8.125 C6.64 8.125 9.28 8.125 12 8.125 C11.979375 6.990625 11.95875 5.85625 11.9375 4.6875 C12 1.125 12 1.125 13 0.125 C16 0 16 0 19 0.125 C21.48340251 2.60840251 20.28239662 9.10405185 20.3125 12.4375 C20.34150391 13.49646484 20.37050781 14.55542969 20.40039062 15.64648438 C20.40876953 16.66677734 20.41714844 17.68707031 20.42578125 18.73828125 C20.44036377 19.67454346 20.45494629 20.61080566 20.4699707 21.57543945 C19.85308374 24.92201118 18.69888869 26.10594557 16 28.125 C14.68 28.125 13.36 28.125 12 28.125 C12.020625 29.259375 12.04125 30.39375 12.0625 31.5625 C12 35.125 12 35.125 11 36.125 C8 36.25 8 36.25 5 36.125 C4 35.125 4 35.125 3.9375 31.5625 C3.958125 30.428125 3.97875 29.29375 4 28.125 C3.05125 28.021875 2.1025 27.91875 1.125 27.8125 C-2 27.125 -2 27.125 -4 24.125 C-4.24291992 21.68896484 -4.24291992 21.68896484 -4.23046875 18.8359375 C-4.22853516 17.81242187 -4.22660156 16.78890625 -4.22460938 15.734375 C-4.21236328 14.66703125 -4.20011719 13.5996875 -4.1875 12.5 C-4.18685547 11.42492187 -4.18621094 10.34984375 -4.18554688 9.2421875 C-4.13401314 0.17225055 -4.13401314 0.17225055 0 0 Z " fill="#000000" transform="translate(80,65)"/>
</svg>
