<svg xmlns="http://www.w3.org/2000/svg" xmlns:xlink="http://www.w3.org/1999/xlink" width="1024" zoomAndPan="magnify" viewBox="0 0 768 767.999994" height="1024" preserveAspectRatio="xMidYMid meet" version="1.0"><defs><clipPath id="2b7d789449"><path d="M 36 0 L 732 0 C 751.882812 0 768 16.117188 768 36 L 768 732 C 768 751.882812 751.882812 768 732 768 L 36 768 C 16.117188 768 0 751.882812 0 732 L 0 36 C 0 16.117188 16.117188 0 36 0 Z M 36 0 " clip-rule="nonzero"/></clipPath><clipPath id="4ed6b42d6d"><path d="M 234.851562 118.527344 L 532.351562 118.527344 L 532.351562 648.527344 L 234.851562 648.527344 Z M 234.851562 118.527344 " clip-rule="nonzero"/></clipPath></defs><rect x="-76.8" width="921.6" fill="#ffffff" y="-76.799999" height="921.599993" fill-opacity="1"/><rect x="-76.8" width="921.6" fill="#ffffff" y="-76.799999" height="921.599993" fill-opacity="1"/><g clip-path="url(#2b7d789449)"><rect x="-76.8" width="921.6" fill="#074464" y="-76.799999" height="921.599993" fill-opacity="1"/></g><g clip-path="url(#4ed6b42d6d)"><path fill="#ffffff" d="M 483.421875 649.132812 L 284.566406 649.132812 C 257.15625 649.132812 234.851562 626.828125 234.851562 599.421875 L 234.851562 201.710938 C 234.851562 174.304688 257.15625 152 284.566406 152 L 301.136719 152 L 301.136719 135.429688 C 301.136719 126.265625 308.5625 118.855469 317.707031 118.855469 L 450.277344 118.855469 C 459.425781 118.855469 466.847656 126.265625 466.847656 135.429688 L 466.847656 152 L 483.421875 152 C 510.828125 152 533.132812 174.304688 533.132812 201.710938 L 533.132812 599.421875 C 533.132812 626.828125 510.828125 649.132812 483.421875 649.132812 Z M 284.566406 185.140625 C 275.433594 185.140625 267.996094 192.566406 267.996094 201.710938 L 267.996094 599.421875 C 267.996094 608.566406 275.433594 615.992188 284.566406 615.992188 L 483.421875 615.992188 C 492.550781 615.992188 499.992188 608.566406 499.992188 599.421875 L 499.992188 201.710938 C 499.992188 192.566406 492.550781 185.140625 483.421875 185.140625 L 450.277344 185.140625 C 441.128906 185.140625 433.707031 177.734375 433.707031 168.570312 L 433.707031 152 L 334.28125 152 L 334.28125 168.570312 C 334.28125 177.734375 326.855469 185.140625 317.707031 185.140625 Z M 284.566406 185.140625 " fill-opacity="1" fill-rule="nonzero"/></g><path fill="#ffffff" d="M 367.421875 301.140625 L 400.5625 301.140625 L 400.5625 433.710938 L 367.421875 433.710938 Z M 367.421875 301.140625 " fill-opacity="1" fill-rule="nonzero"/><path fill="#ffffff" d="M 367.421875 466.851562 L 400.5625 466.851562 L 400.5625 499.992188 L 367.421875 499.992188 Z M 367.421875 466.851562 " fill-opacity="1" fill-rule="nonzero"/></svg>