<svg xmlns="http://www.w3.org/2000/svg" xmlns:xlink="http://www.w3.org/1999/xlink" width="1024" zoomAndPan="magnify" viewBox="0 0 768 767.999994" height="1024" preserveAspectRatio="xMidYMid meet" version="1.0"><defs><clipPath id="42d71fdadb"><path d="M 36 0 L 732 0 C 751.882812 0 768 16.117188 768 36 L 768 732 C 768 751.882812 751.882812 768 732 768 L 36 768 C 16.117188 768 0 751.882812 0 732 L 0 36 C 0 16.117188 16.117188 0 36 0 Z M 36 0 " clip-rule="nonzero"/></clipPath><clipPath id="776f5ee757"><path d="M 194.058594 147 L 574.058594 147 L 574.058594 621.570312 L 194.058594 621.570312 Z M 194.058594 147 " clip-rule="nonzero"/></clipPath></defs><rect x="-76.8" width="921.6" fill="#ffffff" y="-76.799999" height="921.599993" fill-opacity="1"/><rect x="-76.8" width="921.6" fill="#ffffff" y="-76.799999" height="921.599993" fill-opacity="1"/><g clip-path="url(#42d71fdadb)"><rect x="-76.8" width="921.6" fill="#074464" y="-76.799999" height="921.599993" fill-opacity="1"/></g><g clip-path="url(#776f5ee757)"><path fill="#ffffff" d="M 216.988281 192.265625 C 186.613281 192.265625 157.71875 192.265625 147.257812 192.265625 C 143.207031 192.265625 139.566406 189.347656 139.089844 185.332031 C 138.527344 180.542969 142.25 176.476562 146.929688 176.476562 L 216.988281 176.476562 L 216.988281 155.078125 C 216.988281 150.402344 221.054688 146.675781 225.84375 147.242188 C 229.871094 147.71875 232.773438 151.355469 232.773438 155.410156 L 232.773438 176.464844 L 302.84375 176.464844 C 307.523438 176.464844 311.246094 180.53125 310.683594 185.320312 C 310.207031 189.347656 306.570312 192.265625 302.515625 192.265625 C 292.054688 192.265625 263.148438 192.265625 232.773438 192.265625 L 232.773438 215.511719 C 232.773438 217.386719 231.257812 218.890625 229.394531 218.890625 L 220.367188 218.890625 C 218.492188 218.890625 216.988281 217.371094 216.988281 215.511719 Z M 628.886719 183.410156 C 628.410156 179.378906 624.769531 176.476562 620.71875 176.476562 L 550.988281 176.476562 L 550.988281 155.410156 C 550.988281 151.355469 548.074219 147.707031 544.058594 147.242188 C 539.269531 146.675781 535.203125 150.402344 535.203125 155.078125 L 535.203125 176.464844 L 465.472656 176.464844 C 461.417969 176.464844 457.769531 179.378906 457.304688 183.410156 C 456.742188 188.199219 460.464844 192.265625 465.144531 192.265625 L 535.203125 192.265625 L 535.203125 215.265625 C 535.203125 217.273438 536.832031 218.890625 538.828125 218.890625 L 547.363281 218.890625 C 549.371094 218.890625 550.988281 217.261719 550.988281 215.265625 L 550.988281 192.265625 L 621.046875 192.265625 C 625.726562 192.265625 629.460938 188.199219 628.886719 183.410156 Z M 317.898438 329.050781 C 320.898438 327.519531 321.914062 323.722656 320.015625 320.929688 L 317.394531 317.082031 C 315.804688 314.746094 312.71875 313.972656 310.195312 315.269531 C 250.582031 346 214.5625 409.261719 212.515625 475.671875 C 212.285156 483.300781 218.359375 489.546875 225.988281 489.546875 L 263.6875 489.546875 C 266.703125 489.546875 269.089844 486.976562 268.84375 483.960938 L 269.285156 479.320312 C 269.285156 476.246094 266.789062 473.746094 263.714844 473.746094 L 234.34375 473.746094 C 231.097656 473.746094 228.523438 470.980469 228.769531 467.746094 C 233.214844 409.921875 265.796875 355.640625 317.898438 329.050781 Z M 455.675781 314.21875 C 454.339844 313.554688 452.699219 314.035156 451.914062 315.296875 L 447.960938 320.917969 C 446.0625 323.710938 447.078125 327.507812 450.078125 329.039062 C 502.191406 355.628906 534.761719 409.910156 539.21875 467.734375 C 539.464844 470.96875 536.890625 473.722656 533.644531 473.722656 L 504.261719 473.722656 C 501.1875 473.722656 498.691406 476.222656 498.691406 479.296875 L 498.691406 483.949219 C 498.691406 487.023438 501.1875 489.523438 504.261719 489.523438 L 541.988281 489.523438 C 549.617188 489.523438 555.691406 483.277344 555.460938 475.644531 C 553.378906 408.488281 516.535156 344.519531 455.675781 314.21875 Z M 258.273438 263.300781 L 328.089844 263.300781 C 331.078125 263.300781 333.6875 261.636719 335.019531 259.1875 L 354.921875 229.925781 C 356.136719 228.152344 358.144531 227.085938 360.300781 227.085938 L 407.6875 227.085938 C 409.84375 227.085938 411.851562 228.152344 413.066406 229.925781 L 433.382812 259.8125 C 434.902344 262.054688 437.378906 263.265625 439.886719 263.265625 L 439.886719 263.300781 L 509.703125 263.300781 C 513.289062 263.300781 516.203125 266.21875 516.203125 269.804688 L 516.203125 277.214844 C 516.203125 280.804688 513.289062 283.71875 509.703125 283.71875 L 458.371094 283.71875 C 455.382812 283.71875 452.773438 285.386719 451.4375 287.835938 L 413.066406 344.261719 C 411.851562 346.039062 409.84375 347.101562 407.6875 347.101562 L 360.300781 347.101562 C 358.144531 347.101562 356.136719 346.039062 354.921875 344.261719 L 316.121094 287.210938 C 314.601562 284.96875 312.128906 283.757812 309.617188 283.757812 L 309.617188 283.71875 L 258.273438 283.71875 C 254.6875 283.71875 251.769531 280.804688 251.769531 277.214844 L 251.769531 269.804688 C 251.769531 266.21875 254.6875 263.300781 258.273438 263.300781 Z M 351.984375 287.101562 C 351.984375 295.929688 355.574219 303.929688 361.355469 309.722656 C 367.148438 315.515625 375.144531 319.09375 383.976562 319.09375 C 392.808594 319.09375 400.804688 315.515625 406.597656 309.722656 C 412.390625 303.929688 415.96875 295.929688 415.96875 287.101562 C 415.96875 278.269531 412.378906 270.273438 406.597656 264.476562 C 400.804688 258.683594 392.808594 255.109375 383.976562 255.109375 C 375.144531 255.109375 367.148438 258.683594 361.355469 264.476562 C 355.574219 270.273438 351.984375 278.269531 351.984375 287.101562 Z M 383.988281 303.304688 C 388.457031 303.304688 392.511719 301.492188 395.441406 298.566406 C 398.367188 295.636719 400.179688 291.582031 400.179688 287.113281 C 400.179688 282.640625 398.367188 278.589844 395.441406 275.660156 C 392.511719 272.734375 388.457031 270.921875 383.988281 270.921875 C 379.519531 270.921875 375.464844 272.734375 372.535156 275.660156 C 369.609375 278.589844 367.796875 282.640625 367.796875 287.113281 C 367.796875 291.582031 369.609375 295.636719 372.535156 298.566406 C 375.464844 301.492188 379.519531 303.304688 383.988281 303.304688 Z M 214.550781 234.691406 C 214.132812 234.691406 213.804688 235.023438 213.804688 235.4375 L 213.804688 311.585938 C 213.804688 312 214.132812 312.332031 214.550781 312.332031 L 235.210938 312.332031 C 235.628906 312.332031 235.960938 312 235.960938 311.585938 L 235.960938 235.4375 C 235.960938 235.023438 235.628906 234.691406 235.210938 234.691406 Z M 553.425781 312.332031 C 553.84375 312.332031 554.171875 312 554.171875 311.585938 L 554.171875 235.4375 C 554.171875 235.023438 553.84375 234.691406 553.425781 234.691406 L 532.753906 234.691406 C 532.335938 234.691406 532.003906 235.023438 532.003906 235.4375 L 532.003906 311.585938 C 532.003906 312 532.335938 312.332031 532.753906 312.332031 Z M 429.550781 440.726562 C 426.769531 440.726562 424.515625 442.980469 424.515625 445.761719 L 424.515625 502.503906 C 424.515625 509.644531 418.722656 515.4375 411.582031 515.4375 L 356.40625 515.4375 C 349.265625 515.4375 343.472656 509.644531 343.472656 502.503906 L 343.472656 445.761719 C 343.472656 442.980469 341.21875 440.726562 338.4375 440.726562 L 290.144531 440.726562 C 287.363281 440.726562 285.109375 442.980469 285.109375 445.761719 L 285.109375 616.265625 C 285.109375 619.042969 287.363281 621.296875 290.144531 621.296875 L 477.84375 621.296875 C 480.625 621.296875 482.878906 619.042969 482.878906 616.265625 L 482.878906 440.726562 Z M 403.683594 440.726562 L 364.304688 440.726562 C 361.527344 440.726562 359.273438 442.980469 359.273438 445.761719 L 359.273438 494.605469 C 359.273438 497.386719 361.527344 499.640625 364.304688 499.640625 L 403.683594 499.640625 C 406.464844 499.640625 408.71875 497.386719 408.71875 494.605469 L 408.71875 445.761719 C 408.71875 442.980469 406.464844 440.726562 403.683594 440.726562 Z M 403.683594 440.726562 " fill-opacity="1" fill-rule="evenodd"/></g></svg>